<svg version="1.0" xmlns="http://www.w3.org/2000/svg" width="800.000000" height="800.000000" viewBox="0 0 800.000000 800.000000" preserveAspectRatio="xMidYMid meet">
  <metadata>
    <rdf:RDF xmlns:rdf="http://www.w3.org/1999/02/22-rdf-syntax-ns#" xmlns:rdfs="http://www.w3.org/2000/01/rdf-schema#" xmlns:dc="http://purl.org/dc/elements/1.1/">
      <rdf:Description dc:format="image/svg+xml" dc:Label="1" dc:ContentProducer="001191330110MACRLGPT8B00000" dc:ProduceID="406949899" dc:ReservedCode1="E7tzO31zwsvxzzbGObF/FIGGreSLkEDQMPndPZrgg8Y=" dc:ContentPropagator="001191330110MACRLGPT8B00000" dc:PropagateID="406949899" dc:ReservedCode2="E7tzO31zwsvxzzbGObF/FIGGreSLkEDQMPndPZrgg8Y="/>
    </rdf:RDF>
  </metadata>
  <g transform="translate(0.000000,800.000000) scale(0.100000,-0.100000)" fill="#000000" stroke="none">
    <path d="M2238 5954 c-181 -43 -333 -189 -399 -381 -99 -288 92 -628 397 -708 50 -13 205 -15 1176 -15 792 0 1132 3 1170 11 205 44 380 220 424 428 18 84 17 148 -1 236 -34 161 -140 303 -282 378 -135 71 -64 67 -1308 66 -918 -1 -1130 -3 -1177 -15z m2391 -199 c78 -43 138 -106 174 -183 30 -62 32 -74 32 -172 -1 -95 -3 -110 -28 -158 -52 -100 -124 -163 -224 -196 -48 -16 -140 -17 -1170 -18 -1102 -1 -1119 -1 -1170 19 -105 42 -175 109 -225 218 -19 41 -23 67 -23 145 0 82 4 103 27 152 29 63 101 146 155 179 79 49 44 48 1258 46 l1140 -2 54 -30z"/>
    <path d="M2595 5629 c-56 -28 -94 -67 -121 -124 -88 -185 86 -398 278 -341 171 50 234 257 123 402 -58 76 -193 107 -280 63z m134 -159 c31 -16 46 -65 31 -100 -22 -53 -69 -65 -114 -29 -20 16 -26 29 -26 60 0 64 55 99 109 69z"/>
    <path d="M3580 5405 l0 -85 365 0 365 0 0 85 0 85 -365 0 -365 0 0 -85z"/>
    <path d="M5140 5360 l0 -90 310 0 310 0 -2 -537 -3 -538 -307 -3 -308 -2 0 -84 0 -84 61 -7 c33 -4 172 -6 307 -4 l247 4 0 -565 0 -565 -307 -3 -308 -2 0 -85 0 -85 395 0 395 0 0 1370 0 1370 -395 0 -395 0 0 -90z"/>
    <path d="M2232 4640 c-104 -27 -166 -64 -249 -146 -84 -83 -134 -174 -159 -294 -54 -255 108 -530 366 -622 l65 -23 1130 -3 c1022 -3 1137 -1 1200 14 237 56 407 252 430 495 19 211 -102 432 -291 531 -134 71 -80 68 -1312 67 -1057 0 -1110 -1 -1180 -19z m2352 -180 c113 -39 191 -117 237 -239 29 -77 24 -193 -13 -271 -37 -81 -105 -151 -180 -186 l-63 -29 -1150 0 -1150 0 -58 27 c-71 34 -143 106 -182 184 -26 52 -29 69 -29 149 0 70 5 103 23 148 40 102 154 203 255 228 17 4 531 7 1142 8 1081 1 1112 0 1168 -19z"/>
    <path d="M2595 4331 c-46 -21 -100 -72 -122 -114 -21 -42 -28 -129 -13 -182 16 -56 77 -127 133 -154 86 -42 196 -21 266 50 122 122 81 340 -76 406 -46 19 -140 16 -188 -6z m146 -170 c34 -35 37 -68 8 -105 -26 -33 -79 -36 -109 -6 -31 31 -27 93 6 119 36 28 60 26 95 -8z"/>
    <path d="M3580 4105 l0 -85 365 0 365 0 0 85 0 85 -365 0 -365 0 0 -85z"/>
    <path d="M2266 3424 c-221 -48 -396 -230 -443 -459 -14 -67 -14 -93 -5 -161 34 -236 183 -412 407 -481 57 -17 121 -18 1190 -18 l1130 0 71 22 c103 33 160 68 239 147 81 82 128 166 150 271 19 90 19 148 -1 243 -41 200 -188 360 -394 428 -52 18 -118 19 -1165 21 -952 1 -1120 0 -1179 -13z m2308 -184 c115 -36 207 -128 247 -249 30 -90 24 -214 -15 -290 -41 -79 -115 -153 -189 -187 l-62 -29 -1140 0 -1140 0 -56 28 c-88 43 -143 98 -186 185 -36 71 -38 82 -38 166 1 70 6 104 24 148 26 66 103 157 165 193 94 55 62 54 1237 54 1064 1 1088 1 1153 -19z"/>
    <path d="M2645 3101 c-51 -13 -91 -39 -133 -86 -145 -165 -12 -424 208 -403 190 19 279 264 149 412 -55 62 -151 95 -224 77z m96 -190 c34 -35 37 -68 9 -104 -27 -34 -53 -41 -88 -23 -34 17 -42 34 -42 81 0 24 7 39 26 54 36 28 60 26 95 -8z"/>
    <path d="M3580 2855 l0 -85 368 0 367 0 -3 85 -3 85 -365 0 -364 0 0 -85z"/>
  </g>
</svg>